<?xml version="1.0" encoding="utf-8"?>
<!-- Generator: Adobe Illustrator 27.3.1, SVG Export Plug-In . SVG Version: 6.00 Build 0)  -->
<svg version="1.1" id="Layer_1" xmlns="http://www.w3.org/2000/svg" xmlns:xlink="http://www.w3.org/1999/xlink" x="0px" y="0px"
	 viewBox="0 0 40 38" style="enable-background:new 0 0 40 38;" xml:space="preserve">
<style type="text/css">
	.st0{fill:#006DAD;stroke:#BBBBBB;stroke-width:0.3125;stroke-linejoin:bevel;stroke-miterlimit:10;}
</style>
<path class="st0" d="M8,25H2c-1.1,0-2,0.9-2,2v6c0,1.1,0.9,2,2,2h6c1.1,0,2-0.9,2-2v-6C10,25.9,9.1,25,8,25z M6.5,20h12v3h3v-3h12v3
	h3v-3.6c0-1.3-1.1-2.4-2.4-2.4H21.5v-4H24c1.1,0,2-0.9,2-2V5c0-1.1-0.9-2-2-2h-8c-1.1,0-2,0.9-2,2v6c0,1.1,0.9,2,2,2h2.5v4H5.9
	c-1.3,0-2.4,1.1-2.4,2.4V23h3V20z M23,25h-6c-1.1,0-2,0.9-2,2v6c0,1.1,0.9,2,2,2h6c1.1,0,2-0.9,2-2v-6C25,25.9,24.1,25,23,25z
	 M38,25h-6c-1.1,0-2,0.9-2,2v6c0,1.1,0.9,2,2,2h6c1.1,0,2-0.9,2-2v-6C40,25.9,39.1,25,38,25z"/>
</svg>
