<?xml version="1.0" encoding="UTF-8" standalone="no"?>
<!-- Created with Inkscape (http://www.inkscape.org/) -->

<svg
   xmlns:dc="http://purl.org/dc/elements/1.1/"
   xmlns:cc="http://creativecommons.org/ns#"
   xmlns:rdf="http://www.w3.org/1999/02/22-rdf-syntax-ns#"
   xmlns:svg="http://www.w3.org/2000/svg"
   xmlns="http://www.w3.org/2000/svg"
   xmlns:sodipodi="http://sodipodi.sourceforge.net/DTD/sodipodi-0.dtd"
   xmlns:inkscape="http://www.inkscape.org/namespaces/inkscape"
   width="65.565819mm"
   height="49.172894mm"
   viewBox="0 0 232.31983 174.23466"
   id="svg9379"
   version="1.1"
   inkscape:version="0.91 r13725">
  <defs
     id="defs9381" />
  <sodipodi:namedview
     id="base"
     pagecolor="#ffffff"
     bordercolor="#666666"
     borderopacity="1.0"
     inkscape:pageopacity="0.0"
     inkscape:pageshadow="2"
     inkscape:zoom="0.35"
     inkscape:cx="-513.1258"
     inkscape:cy="-215.73981"
     inkscape:document-units="px"
     inkscape:current-layer="layer1"
     showgrid="false"
     fit-margin-top="0"
     fit-margin-left="0"
     fit-margin-right="0"
     fit-margin-bottom="0"
     inkscape:window-width="1600"
     inkscape:window-height="836"
     inkscape:window-x="0"
     inkscape:window-y="27"
     inkscape:window-maximized="1" />
  <metadata
     id="metadata9384">
    <rdf:RDF>
      <cc:Work
         rdf:about="">
        <dc:format>image/svg+xml</dc:format>
        <dc:type
           rdf:resource="http://purl.org/dc/dcmitype/StillImage" />
        <dc:title></dc:title>
      </cc:Work>
    </rdf:RDF>
  </metadata>
  <g
     inkscape:label="Layer 1"
     inkscape:groupmode="layer"
     id="layer1"
     transform="translate(-369.55437,-142.38773)">
    <g
       transform="translate(108.84,-110.45984)"
       id="g4397"
       inkscape:export-xdpi="116.22256"
       inkscape:export-ydpi="116.22256">
      <path
         inkscape:export-ydpi="116.22256"
         inkscape:export-xdpi="116.22256"
         inkscape:connector-curvature="0"
         id="path6853"
         style="fill:#f7f7f4;fill-opacity:1;stroke:#cccccc;stroke-width:0.35507631;stroke-linejoin:bevel;stroke-miterlimit:4;stroke-dasharray:none"
         d="m 276.51539,367.4634 15.55544,5.6617 15.78565,-5.7455 -15.55544,-5.6618 z" />
      <path
         inkscape:export-ydpi="116.22256"
         inkscape:export-xdpi="116.22256"
         d="m 292.13871,354.68059 15.55544,5.66171 15.78565,-5.74551 -15.55544,-5.66172 z"
         style="fill:#f7f7f4;fill-opacity:1;stroke:#cccccc;stroke-width:0.35507631;stroke-linejoin:bevel;stroke-miterlimit:4;stroke-dasharray:none"
         id="path6855"
         inkscape:connector-curvature="0" />
      <path
         inkscape:export-ydpi="116.22256"
         inkscape:export-xdpi="116.22256"
         d="m 292.13871,354.68059 15.55544,5.66171 0,18.2827 -15.55544,-5.6617 z"
         style="fill:#efeeea;fill-opacity:1;stroke:#cccccc;stroke-width:0.35507631;stroke-linejoin:bevel;stroke-miterlimit:4;stroke-dasharray:none"
         id="path6857"
         inkscape:connector-curvature="0" />
      <path
         inkscape:export-ydpi="116.22256"
         inkscape:export-xdpi="116.22256"
         inkscape:connector-curvature="0"
         id="path6859"
         style="fill:#f7f7f4;fill-opacity:1;stroke:#cccccc;stroke-width:0.35507631;stroke-linejoin:bevel;stroke-miterlimit:4;stroke-dasharray:none"
         d="m 260.89191,391.6085 15.55544,5.6617 15.78565,-5.7455 -15.55544,-5.6617 z" />
      <path
         inkscape:export-ydpi="116.22256"
         inkscape:export-xdpi="116.22256"
         inkscape:connector-curvature="0"
         id="path6861"
         style="fill:#efeeea;fill-opacity:1;stroke:#cccccc;stroke-width:0.35507631;stroke-linejoin:bevel;stroke-miterlimit:4;stroke-dasharray:none"
         d="m 260.89191,391.6085 15.55544,5.6617 0,18.2827 -15.55544,-5.6617 z" />
      <path
         inkscape:export-ydpi="116.22256"
         inkscape:export-xdpi="116.22256"
         inkscape:connector-curvature="0"
         id="path6863"
         style="fill:#f7f7f4;fill-opacity:1;stroke:#cccccc;stroke-width:0.35507631;stroke-linejoin:bevel;stroke-miterlimit:4;stroke-dasharray:none"
         d="m 260.89191,365.6085 15.55544,5.6617 15.78565,-5.7455 -15.55544,-5.6617 z" />
      <path
         inkscape:export-ydpi="116.22256"
         inkscape:export-xdpi="116.22256"
         inkscape:connector-curvature="0"
         id="path6865"
         style="fill:#ffffff;fill-opacity:1;stroke:#cccccc;stroke-width:0.35507631;stroke-linejoin:bevel;stroke-miterlimit:4;stroke-dasharray:none"
         d="m 276.44735,371.2702 0,18.2827 15.78565,-5.7455 0,-18.2827 z" />
      <path
         inkscape:export-ydpi="116.22256"
         inkscape:export-xdpi="116.22256"
         inkscape:connector-curvature="0"
         id="path6867"
         style="fill:#efeeea;fill-opacity:1;stroke:#cccccc;stroke-width:0.35507631;stroke-linejoin:bevel;stroke-miterlimit:4;stroke-dasharray:none"
         d="m 260.89191,365.6085 15.55544,5.6617 0,18.2827 -15.55544,-5.6617 z" />
      <path
         inkscape:export-ydpi="116.22256"
         inkscape:export-xdpi="116.22256"
         id="path6869"
         d="m 276.6995,350.05658 -0.025,0.0312 a 2.7826414,2.7826414 0 0 0 -2.7578,2.78125 2.7826414,2.7826414 0 0 0 0.053,0.53125 l -11.746,14.38476 7.6464,9.36328 -3.8691,-9.36328 9.9844,-12.22851 a 2.7826414,2.7826414 0 0 0 0.7148,0.0957 2.7826414,2.7826414 0 0 0 0.7149,-0.0937 l 5.3144,6.50781 5.3731,1.95508 -8.6719,-10.62109 a 2.7826414,2.7826414 0 0 0 0.051,-0.53125 2.7826414,2.7826414 0 0 0 -2.7559,-2.78125 l -0.025,-0.0312 z"
         style="fill:#646464;fill-opacity:1"
         inkscape:connector-curvature="0" />
      <path
         inkscape:export-ydpi="116.22256"
         inkscape:export-xdpi="116.22256"
         inkscape:connector-curvature="0"
         style="fill:#646464;fill-opacity:1"
         d="m 278.83531,342.76762 c 4e-5,-1.1796 -0.95623,-2.13587 -2.13583,-2.13582 -1.17948,1.3e-4 -2.13555,0.95634 -2.1355,2.13582 l 0,3.26528 c 1.2e-4,1.17936 0.95614,2.13539 2.1355,2.13551 1.17948,5e-5 2.1357,-0.95603 2.13583,-2.13551 l 0,-3.26528 z m -0.98118,-0.002 0,3.26528 c 0,0.63759 -0.51706,1.15465 -1.15465,1.15465 -0.63759,0 -1.15433,-0.51706 -1.15433,-1.15465 l 0,-3.26528 c 0,-0.63758 0.51674,-1.15433 1.15433,-1.15433 0.63758,0 1.15465,0.51675 1.15465,1.15433 z"
         id="path6871" />
      <path
         inkscape:export-ydpi="116.22256"
         inkscape:export-xdpi="116.22256"
         id="path6873"
         d="m 278.83531,331.55499 c 4e-5,-1.1796 -0.95623,-2.13587 -2.13583,-2.13583 -1.17948,1.3e-4 -2.13555,0.95635 -2.1355,2.13583 l 0,3.26528 c 1.2e-4,1.17935 0.95614,2.13538 2.1355,2.13551 1.17948,4e-5 2.1357,-0.95603 2.13583,-2.13551 l 0,-3.26528 z m -0.98118,-0.002 0,3.26528 c 0,0.63758 -0.51706,1.15464 -1.15465,1.15464 -0.63759,0 -1.15433,-0.51706 -1.15433,-1.15464 l 0,-3.26528 c 0,-0.63759 0.51674,-1.15433 1.15433,-1.15433 0.63758,0 1.15465,0.51674 1.15465,1.15433 z"
         style="fill:#646464;fill-opacity:1"
         inkscape:connector-curvature="0" />
      <path
         inkscape:export-ydpi="116.22256"
         inkscape:export-xdpi="116.22256"
         style="fill:#646464;fill-opacity:1"
         d="m 277.21913,335.54498 0,6.49758 c 0,0.28781 -0.2317,0.51951 -0.5195,0.51951 -0.28781,0 -0.51951,-0.2317 -0.51951,-0.51951 l 0,-6.49758 c 0,-0.2878 0.2317,-0.5195 0.51951,-0.5195 0.2878,0 0.5195,0.2317 0.5195,0.5195 z"
         id="path6875"
         inkscape:connector-curvature="0" />
      <path
         inkscape:export-ydpi="116.22256"
         inkscape:export-xdpi="116.22256"
         style="fill:#646464;fill-opacity:1"
         d="m 277.21913,346.7576 0,6.49758 c 0,0.28781 -0.2317,0.51951 -0.5195,0.51951 -0.28781,0 -0.51951,-0.2317 -0.51951,-0.51951 l 0,-6.49758 c 0,-0.28781 0.2317,-0.51951 0.51951,-0.51951 0.2878,0 0.5195,0.2317 0.5195,0.51951 z"
         id="path6877"
         inkscape:connector-curvature="0" />
      <path
         inkscape:export-ydpi="116.22256"
         inkscape:export-xdpi="116.22256"
         style="fill:#646464;fill-opacity:1"
         d="m 277.21913,324.29498 0,6.49758 c 0,0.28781 -0.2317,0.51951 -0.5195,0.51951 -0.28781,0 -0.51951,-0.2317 -0.51951,-0.51951 l 0,-6.49758 c 0,-0.2878 0.2317,-0.5195 0.51951,-0.5195 0.2878,0 0.5195,0.2317 0.5195,0.5195 z"
         id="path6879"
         inkscape:connector-curvature="0" />
      <path
         inkscape:export-ydpi="116.22256"
         inkscape:export-xdpi="116.22256"
         d="m 276.51531,397.2897 15.55544,5.6618 0,18.2826 -15.55544,-5.6617 z"
         style="fill:#efeeea;fill-opacity:1;stroke:#cccccc;stroke-width:0.35507631;stroke-linejoin:bevel;stroke-miterlimit:4;stroke-dasharray:none"
         id="path6881"
         inkscape:connector-curvature="0" />
      <path
         inkscape:export-ydpi="116.22256"
         inkscape:export-xdpi="116.22256"
         inkscape:connector-curvature="0"
         id="path6883"
         style="fill:#f7f7f4;fill-opacity:1;stroke:#cccccc;stroke-width:0.35507631;stroke-linejoin:bevel;stroke-miterlimit:4;stroke-dasharray:none"
         d="m 276.51531,378.8258 15.55544,5.6617 15.78565,-5.7455 -15.55544,-5.6617 z" />
      <path
         inkscape:export-ydpi="116.22256"
         inkscape:export-xdpi="116.22256"
         inkscape:connector-curvature="0"
         id="path6885"
         style="fill:#efeeea;fill-opacity:1;stroke:#cccccc;stroke-width:0.35507631;stroke-linejoin:bevel;stroke-miterlimit:4;stroke-dasharray:none"
         d="m 276.51531,378.8258 15.55544,5.6617 0,18.2827 -15.55544,-5.6617 z" />
      <path
         inkscape:export-ydpi="116.22256"
         inkscape:export-xdpi="116.22256"
         inkscape:connector-curvature="0"
         id="path6887"
         style="fill:#ffffff;fill-opacity:1;stroke:#cccccc;stroke-width:0.35507631;stroke-linejoin:bevel;stroke-miterlimit:4;stroke-dasharray:none"
         d="m 354.56415,391.589 0,18.2827 15.78565,-5.7455 0,-18.2827 z" />
      <path
         inkscape:export-ydpi="116.22256"
         inkscape:export-xdpi="116.22256"
         d="m 338.94085,397.2702 0,18.2827 15.78565,-5.7455 0,-18.2827 z"
         style="fill:#ffd242;fill-opacity:1;stroke:#cccccc;stroke-width:0.35507631;stroke-linejoin:bevel;stroke-miterlimit:4;stroke-dasharray:none"
         id="path6889"
         inkscape:connector-curvature="0" />
      <path
         inkscape:export-ydpi="116.22256"
         inkscape:export-xdpi="116.22256"
         style="fill:#ffffff;fill-opacity:1"
         d="m 351.86554,401.72829 a 2.6170252,3.7374993 35.000002 0 1 -3.03172,4.3297 2.6170252,3.7374993 35.000002 0 1 -3.03171,-2.1228 2.6170252,3.7374993 35.000002 0 1 3.03171,-4.3298 2.6170252,3.7374993 35.000002 0 1 3.03172,2.1229 z"
         id="path6891"
         inkscape:connector-curvature="0" />
      <path
         inkscape:export-ydpi="116.22256"
         inkscape:export-xdpi="116.22256"
         d="m 323.31755,402.9515 0,18.2827 15.78565,-5.7456 0,-18.2827 z"
         style="fill:#ffd242;fill-opacity:1;stroke:#cccccc;stroke-width:0.35507631;stroke-linejoin:bevel;stroke-miterlimit:4;stroke-dasharray:none"
         id="path6893"
         inkscape:connector-curvature="0" />
      <path
         inkscape:export-ydpi="116.22256"
         inkscape:export-xdpi="116.22256"
         inkscape:connector-curvature="0"
         id="path6895"
         style="fill:#ffffff;fill-opacity:1;stroke:#cccccc;stroke-width:0.35507631;stroke-linejoin:bevel;stroke-miterlimit:4;stroke-dasharray:none"
         d="m 307.69415,408.6327 0,18.2827 15.78565,-5.7455 0,-18.2827 z" />
      <path
         inkscape:export-ydpi="116.22256"
         inkscape:export-xdpi="116.22256"
         inkscape:connector-curvature="0"
         id="path6897"
         style="fill:#efeeea;fill-opacity:1;stroke:#cccccc;stroke-width:0.35507631;stroke-linejoin:bevel;stroke-miterlimit:4;stroke-dasharray:none"
         d="m 292.13871,402.971 15.55544,5.6617 0,18.2827 -15.55544,-5.6617 z" />
      <path
         inkscape:export-ydpi="116.22256"
         inkscape:export-xdpi="116.22256"
         d="m 354.56415,373.1251 0,18.2826 15.78565,-5.7455 0,-18.2827 z"
         style="fill:#ffd242;fill-opacity:1;stroke:#cccccc;stroke-width:0.35507631;stroke-linejoin:bevel;stroke-miterlimit:4;stroke-dasharray:none"
         id="path6899"
         inkscape:connector-curvature="0" />
      <path
         inkscape:export-ydpi="116.22256"
         inkscape:export-xdpi="116.22256"
         inkscape:connector-curvature="0"
         id="path6901"
         style="fill:#ffc91d;fill-opacity:1;stroke:#cccccc;stroke-width:0.35507631;stroke-linejoin:bevel;stroke-miterlimit:4;stroke-dasharray:none"
         d="m 339.00871,348.99937 15.55544,5.66172 15.78565,-5.74552 -15.55544,-5.66172 z" />
      <path
         inkscape:export-ydpi="116.22256"
         inkscape:export-xdpi="116.22256"
         inkscape:connector-curvature="0"
         id="path6903"
         style="fill:#ffd242;fill-opacity:1;stroke:#cccccc;stroke-width:0.35507631;stroke-linejoin:bevel;stroke-miterlimit:4;stroke-dasharray:none"
         d="m 354.56415,354.66109 0,18.28271 15.78565,-5.7455 0,-18.28273 z" />
      <path
         inkscape:export-ydpi="116.22256"
         inkscape:export-xdpi="116.22256"
         inkscape:connector-curvature="0"
         id="path6905"
         style="fill:#ffd242;fill-opacity:1;stroke:#cccccc;stroke-width:0.35507631;stroke-linejoin:bevel;stroke-miterlimit:4;stroke-dasharray:none"
         d="m 338.94085,378.8063 0,18.2827 15.78565,-5.7455 0,-18.2827 z" />
      <path
         inkscape:export-ydpi="116.22256"
         inkscape:export-xdpi="116.22256"
         d="m 338.94085,360.3423 0,18.2827 15.78565,-5.7455 0,-18.28271 z"
         style="fill:#3775a9;fill-opacity:1;stroke:#cccccc;stroke-width:0.35507631;stroke-linejoin:bevel;stroke-miterlimit:4;stroke-dasharray:none"
         id="path6907"
         inkscape:connector-curvature="0" />
      <path
         inkscape:export-ydpi="116.22256"
         inkscape:export-xdpi="116.22256"
         inkscape:connector-curvature="0"
         id="path6909"
         style="fill:#2f6491;fill-opacity:1;stroke:#cccccc;stroke-width:0.35507631;stroke-linejoin:bevel;stroke-miterlimit:4;stroke-dasharray:none"
         d="m 323.38541,336.21662 15.55544,5.66172 15.78565,-5.74552 -15.55544,-5.66172 z" />
      <path
         inkscape:export-ydpi="116.22256"
         inkscape:export-xdpi="116.22256"
         inkscape:connector-curvature="0"
         id="path6911"
         style="fill:#3775a9;fill-opacity:1;stroke:#cccccc;stroke-width:0.35507631;stroke-linejoin:bevel;stroke-miterlimit:4;stroke-dasharray:none"
         d="m 338.94085,341.87834 0,18.28266 15.78565,-5.74549 0,-18.28269 z" />
      <path
         inkscape:export-ydpi="116.22256"
         inkscape:export-xdpi="116.22256"
         d="m 323.31755,384.4875 0,18.2827 15.78565,-5.7455 0,-18.2827 z"
         style="fill:#ffd242;fill-opacity:1;stroke:#cccccc;stroke-width:0.35507631;stroke-linejoin:bevel;stroke-miterlimit:4;stroke-dasharray:none"
         id="path6913"
         inkscape:connector-curvature="0" />
      <path
         inkscape:export-ydpi="116.22256"
         inkscape:export-xdpi="116.22256"
         inkscape:connector-curvature="0"
         id="path6915"
         style="fill:#3775a9;fill-opacity:1;stroke:#cccccc;stroke-width:0.35507631;stroke-linejoin:bevel;stroke-miterlimit:4;stroke-dasharray:none"
         d="m 323.31755,366.0235 0,18.2827 15.78565,-5.7455 0,-18.2827 z" />
      <path
         inkscape:export-ydpi="116.22256"
         inkscape:export-xdpi="116.22256"
         inkscape:connector-curvature="0"
         id="path6917"
         style="fill:#3775a9;fill-opacity:1;stroke:#cccccc;stroke-width:0.35507631;stroke-linejoin:bevel;stroke-miterlimit:4;stroke-dasharray:none"
         d="m 307.69415,390.1687 0,18.2827 15.78565,-5.7455 0,-18.2827 z" />
      <path
         inkscape:export-ydpi="116.22256"
         inkscape:export-xdpi="116.22256"
         inkscape:connector-curvature="0"
         id="path6919"
         style="fill:#2f6491;fill-opacity:1;stroke:#cccccc;stroke-width:0.35507631;stroke-linejoin:bevel;stroke-miterlimit:4;stroke-dasharray:none"
         d="m 292.13871,384.507 15.55544,5.6617 0,18.2827 -15.55544,-5.6617 z" />
      <path
         inkscape:export-ydpi="116.22256"
         inkscape:export-xdpi="116.22256"
         d="m 292.13871,366.043 15.55544,5.6617 15.78565,-5.7455 -15.55544,-5.6617 z"
         style="fill:#2f6491;fill-opacity:1;stroke:#cccccc;stroke-width:0.35507631;stroke-linejoin:bevel;stroke-miterlimit:4;stroke-dasharray:none"
         id="path6921"
         inkscape:connector-curvature="0" />
      <path
         inkscape:export-ydpi="116.22256"
         inkscape:export-xdpi="116.22256"
         d="m 307.69415,371.7048 0,18.2826 15.78565,-5.7455 0,-18.2827 z"
         style="fill:#3775a9;fill-opacity:1;stroke:#cccccc;stroke-width:0.35507631;stroke-linejoin:bevel;stroke-miterlimit:4;stroke-dasharray:none"
         id="path6923"
         inkscape:connector-curvature="0" />
      <path
         inkscape:export-ydpi="116.22256"
         inkscape:export-xdpi="116.22256"
         d="m 292.13871,366.043 15.55544,5.6617 0,18.2827 -15.55544,-5.6617 z"
         style="fill:#2f6491;fill-opacity:1;stroke:#cccccc;stroke-width:0.35507631;stroke-linejoin:bevel;stroke-miterlimit:4;stroke-dasharray:none"
         id="path6925"
         inkscape:connector-curvature="0" />
      <path
         inkscape:export-ydpi="116.22256"
         inkscape:export-xdpi="116.22256"
         d="m 307.76211,341.89784 15.55544,5.66172 15.78565,-5.74552 -15.55544,-5.66172 z"
         style="fill:#2f6491;fill-opacity:1;stroke:#cccccc;stroke-width:0.35507631;stroke-linejoin:bevel;stroke-miterlimit:4;stroke-dasharray:none"
         id="path6927"
         inkscape:connector-curvature="0" />
      <path
         inkscape:export-ydpi="116.22256"
         inkscape:export-xdpi="116.22256"
         d="m 323.31755,347.55956 0,18.28264 15.78565,-5.7455 0,-18.28266 z"
         style="fill:#3775a9;fill-opacity:1;stroke:#cccccc;stroke-width:0.35507631;stroke-linejoin:bevel;stroke-miterlimit:4;stroke-dasharray:none"
         id="path6929"
         inkscape:connector-curvature="0" />
      <path
         inkscape:export-ydpi="116.22256"
         inkscape:export-xdpi="116.22256"
         d="m 307.76211,341.89784 15.55544,5.66172 0,18.28264 -15.55544,-5.6617 z"
         style="fill:#2f6491;fill-opacity:1;stroke:#cccccc;stroke-width:0.35507631;stroke-linejoin:bevel;stroke-miterlimit:4;stroke-dasharray:none"
         id="path6931"
         inkscape:connector-curvature="0" />
      <path
         inkscape:export-ydpi="116.22256"
         inkscape:export-xdpi="116.22256"
         style="fill:#ffffff;fill-opacity:1"
         d="m 332.24208,353.43182 a 2.6170252,3.7374993 35.000002 0 1 -3.03171,4.32963 2.6170252,3.7374993 35.000002 0 1 -3.03172,-2.12272 2.6170252,3.7374993 35.000002 0 1 3.03172,-4.32973 2.6170252,3.7374993 35.000002 0 1 3.03171,2.12282 z"
         id="path6933"
         inkscape:connector-curvature="0" />
      <path
         inkscape:export-ydpi="116.22256"
         inkscape:export-xdpi="116.22256"
         d="m 297.37538,291.70523 c 0,-9.64501 -2.75019,-14.59663 -8.25055,-14.86778 -2.18854,-0.10339 -4.32541,0.24532 -6.40421,1.05231 -1.65913,0.59392 -2.776,1.18142 -3.36347,1.77536 l 0,23.02149 c 3.51842,2.2079 6.64305,3.23437 9.36741,3.07299 5.76506,-0.38091 8.65082,-5.06138 8.65082,-14.05437 z m 6.78508,0.40027 c 0,4.89997 -1.14914,8.96716 -3.46033,12.20153 -2.57588,3.66045 -6.14596,5.54557 -10.71023,5.64886 -3.44095,0.10978 -6.98521,-0.96838 -10.63275,-3.22792 l 0,20.92336 -5.90065,-2.10459 0,-46.44329 c 0.96838,-1.18788 2.21435,-2.2079 3.72502,-3.07298 3.51199,-2.0465 7.77928,-3.0988 12.80192,-3.15044 l 0.084,0.0838 c 4.59009,-0.0581 8.12789,1.82701 10.6134,5.64886 2.31764,3.50552 3.47969,7.99879 3.47969,13.4927 z"
         style="fill:#646464;fill-opacity:1"
         id="path6935"
         inkscape:connector-curvature="0" />
      <path
         inkscape:export-ydpi="116.22256"
         inkscape:export-xdpi="116.22256"
         d="m 340.22276,305.83706 c 0,6.57204 -0.65851,11.12341 -1.97549,13.6541 -1.32345,2.53069 -3.84122,4.55136 -7.55978,6.05558 -3.01487,1.18786 -6.27507,1.83344 -9.77413,1.9432 l -0.97483,-3.71856 c 3.55716,-0.4842 6.06202,-0.96838 7.51459,-1.45257 2.85993,-0.96838 4.82251,-2.45322 5.90063,-4.44161 0.86507,-1.62043 1.29117,-4.71277 1.29117,-9.28995 l 0,-1.53649 c -4.03489,1.83345 -8.26348,2.74374 -12.68571,2.74374 -2.90514,0 -5.4681,-0.91029 -7.676,-2.74374 -2.47904,-1.99486 -3.71856,-4.52555 -3.71856,-7.59206 l 0,-24.55801 5.90063,-2.02066 0,24.71938 c 0,2.64043 0.85218,4.67403 2.55652,6.10077 1.70434,1.42674 3.91222,2.11106 6.61722,2.05942 2.705,-0.0581 5.60367,-1.10395 8.6831,-3.15046 l 0,-28.83821 5.90064,0 0,32.06613 z"
         style="fill:#646464;fill-opacity:1"
         id="path6937"
         inkscape:connector-curvature="0" />
      <path
         inkscape:export-ydpi="116.22256"
         inkscape:export-xdpi="116.22256"
         d="m 363.25718,309.6331 c -0.70369,0.0581 -1.34927,0.0838 -1.94321,0.0838 -3.33766,0 -5.93937,-0.79406 -7.79866,-2.38866 -1.85282,-1.59458 -2.78244,-3.79602 -2.78244,-6.60431 l 0,-23.241 -4.04137,0 0,-3.71211 4.04137,0 0,-9.85806 5.89416,-2.09816 0,11.95622 6.63015,0 0,3.71211 -6.63015,0 0,23.07961 c 0,2.21435 0.59394,3.7831 1.78182,4.69983 1.02002,0.75534 2.64043,1.18788 4.84833,1.29764 l 0,3.07298 z"
         style="fill:#646464;fill-opacity:1"
         id="path6939"
         inkscape:connector-curvature="0" />
      <path
         inkscape:export-ydpi="116.22256"
         inkscape:export-xdpi="116.22256"
         d="m 398.98377,309.1489 -5.90063,0 0,-22.77618 c 0,-2.31765 -0.54231,-4.3125 -1.62041,-5.9781 -1.24599,-1.88511 -2.97615,-2.82767 -5.19695,-2.82767 -2.705,0 -6.08787,1.42674 -10.14858,4.28024 l 0,27.30171 -5.90064,0 0,-54.44206 5.90064,-1.85927 0,24.79687 c 3.77021,-2.74375 7.88902,-4.11883 12.36291,-4.11883 3.12463,0 5.65532,1.0523 7.59207,3.15044 1.94322,2.09815 2.91159,4.71277 2.91159,7.83738 l 0,24.63547 0,0 z"
         style="fill:#646464;fill-opacity:1"
         id="path6941"
         inkscape:connector-curvature="0" />
      <path
         inkscape:export-ydpi="116.22256"
         inkscape:export-xdpi="116.22256"
         d="m 430.34622,290.77559 c 0,-3.70564 -0.70368,-6.7657 -2.10461,-9.18664 -1.6656,-2.95032 -4.2544,-4.50618 -7.75345,-4.66757 -6.46875,0.37444 -9.69667,5.00972 -9.69667,13.89295 0,4.07364 0.67141,7.47585 2.02713,10.20668 1.73017,3.47969 4.32541,5.19695 7.78574,5.13884 6.49457,-0.0517 9.74186,-5.17758 9.74186,-15.38426 z m 6.46229,0.0387 c 0,5.27442 -1.34927,9.66439 -4.04136,13.1699 -2.96322,3.92515 -7.05622,5.89418 -12.27899,5.89418 -5.17759,0 -9.21249,-1.96903 -12.12407,-5.89418 -2.64043,-3.50551 -3.95743,-7.89548 -3.95743,-13.1699 0,-4.95809 1.42676,-9.12855 4.28022,-12.52432 3.01489,-3.60236 6.97877,-5.40999 11.87874,-5.40999 4.89999,0 8.88968,1.80763 11.96267,5.40999 2.85346,3.39577 4.28022,7.56623 4.28022,12.52432 z"
         style="fill:#646464;fill-opacity:1"
         id="path6943"
         inkscape:connector-curvature="0" />
      <path
         inkscape:export-ydpi="116.22256"
         inkscape:export-xdpi="116.22256"
         d="m 470.63708,309.1489 -5.90064,0 0,-24.06734 c 0,-2.64045 -0.79406,-4.69985 -2.3822,-6.18469 -1.58813,-1.4784 -3.70564,-2.19499 -6.34608,-2.13689 -2.80183,0.0517 -5.46809,0.96837 -7.99878,2.74372 l 0,29.6452 -5.90063,0 0,-30.3747 c 3.39577,-2.47257 6.5204,-4.08654 9.37386,-4.84187 2.69209,-0.7037 5.06785,-1.0523 7.11434,-1.0523 1.40093,0 2.71791,0.13553 3.95743,0.4067 2.31764,0.53584 4.20274,1.53003 5.65531,2.98907 1.6204,1.61396 2.42739,3.55071 2.42739,5.8167 l 0,27.0564 z"
         style="fill:#646464;fill-opacity:1"
         id="path6945"
         inkscape:connector-curvature="0" />
      <path
         inkscape:export-ydpi="116.22256"
         inkscape:export-xdpi="116.22256"
         sodipodi:nodetypes="ccccccccccccccccccccccc"
         id="path6947"
         style="font-style:normal;font-weight:normal;font-size:15.16445827px;line-height:125%;font-family:'Bitstream Vera Sans';fill:#646464;fill-opacity:1;stroke:none;stroke-width:1px;stroke-linecap:butt;stroke-linejoin:miter;stroke-opacity:1"
         d="m 482.1057,267.27606 1.0138,0 0,-6.35829 2.4016,0 0,-0.75787 -5.8169,0 0,0.75787 2.4015,0 0,6.35829 m 4.3143,0 0.8662,0 0,-5.8071 1.8799,5.80636 0.9643,0 1.9589,-5.78667 0,5.78741 0.9449,0 0,-7.11616 -1.25,0 -2.1408,6.09646 -1.8257,-6.09646 -1.3977,0 0,7.11616"
         inkscape:connector-curvature="0" />
      <path
         inkscape:export-ydpi="116.22256"
         inkscape:export-xdpi="116.22256"
         inkscape:connector-curvature="0"
         id="path6949"
         style="font-style:normal;font-variant:normal;font-weight:600;font-stretch:normal;font-size:medium;line-height:125%;font-family:'Source Sans Pro';-inkscape-font-specification:'Source Sans Pro Semi-Bold';letter-spacing:0px;word-spacing:0px;fill:#646464;fill-opacity:1;stroke:none;stroke-width:1px;stroke-linecap:butt;stroke-linejoin:miter;stroke-opacity:1"
         d="m 381.32102,335.57863 2.98826,0 0,-6.18269 2.67913,0 c 3.63241,0 6.41459,-1.726 6.41459,-5.46136 0,-3.91571 -2.73066,-5.20377 -6.41459,-5.20377 l -5.66739,0 0,16.84782 z m 2.98826,-8.57847 0,-5.87355 2.44735,0 c 2.44724,0 3.70963,0.69555 3.70963,2.80797 0,2.06089 -1.21087,3.06558 -3.70963,3.06558 l -2.44735,0 z" />
      <path
         inkscape:export-ydpi="116.22256"
         inkscape:export-xdpi="116.22256"
         inkscape:connector-curvature="0"
         id="path6951"
         style="font-style:normal;font-variant:normal;font-weight:600;font-stretch:normal;font-size:medium;line-height:125%;font-family:'Source Sans Pro';-inkscape-font-specification:'Source Sans Pro Semi-Bold';letter-spacing:0px;word-spacing:0px;fill:#646464;fill-opacity:1;stroke:none;stroke-width:1px;stroke-linecap:butt;stroke-linejoin:miter;stroke-opacity:1"
         d="m 394.81182,332.17815 c 0,2.21546 1.5457,3.70961 3.76116,3.70961 1.49408,0 2.78218,-0.74707 3.91562,-1.70024 l 0.0772,0 0.23189,1.39111 2.42153,0 0,-7.49651 c 0,-3.52928 -1.54569,-5.46137 -4.71432,-5.46137 -2.00938,0 -3.78687,0.77284 -5.17801,1.64872 l 1.08202,1.98361 c 1.10773,-0.66979 2.29269,-1.23653 3.55498,-1.23653 1.70026,0 2.26698,1.13349 2.29279,2.47306 -5.17801,0.56675 -7.44499,1.98361 -7.44499,4.68854 z m 2.88522,-0.23185 c 0,-1.2623 1.13354,-2.16394 4.55977,-2.60188 l 0,2.83373 c -0.92746,0.87588 -1.72597,1.3911 -2.75647,1.3911 -1.05621,0 -1.8033,-0.48946 -1.8033,-1.62295 z" />
      <path
         inkscape:export-ydpi="116.22256"
         inkscape:export-xdpi="116.22256"
         inkscape:connector-curvature="0"
         id="path6953"
         style="font-style:normal;font-variant:normal;font-weight:600;font-stretch:normal;font-size:medium;line-height:125%;font-family:'Source Sans Pro';-inkscape-font-specification:'Source Sans Pro Semi-Bold';letter-spacing:0px;word-spacing:0px;fill:#646464;fill-opacity:1;stroke:none;stroke-width:1px;stroke-linecap:butt;stroke-linejoin:miter;stroke-opacity:1"
         d="m 408.01281,329.26713 c 0,4.19908 2.65343,6.62063 6.10537,6.62063 1.44266,0 2.96255,-0.56674 4.14761,-1.62295 l -1.23658,-1.88057 c -0.69557,0.56675 -1.57141,1.08197 -2.60191,1.08197 -1.98357,0 -3.37471,-1.67448 -3.37471,-4.19908 0,-2.55034 1.41685,-4.22482 3.45204,-4.22482 0.79861,0 1.46837,0.33489 2.13813,0.9274 l 1.41695,-1.88057 c -0.85013,-0.82436 -2.08671,-1.46839 -3.70964,-1.46839 -3.37471,0 -6.33726,2.42156 -6.33726,6.64638 z" />
      <path
         inkscape:export-ydpi="116.22256"
         inkscape:export-xdpi="116.22256"
         inkscape:connector-curvature="0"
         id="path6955"
         style="font-style:normal;font-variant:normal;font-weight:600;font-stretch:normal;font-size:medium;line-height:125%;font-family:'Source Sans Pro';-inkscape-font-specification:'Source Sans Pro Semi-Bold';letter-spacing:0px;word-spacing:0px;fill:#646464;fill-opacity:1;stroke:none;stroke-width:1px;stroke-linecap:butt;stroke-linejoin:miter;stroke-opacity:1"
         d="m 420.76181,335.57863 2.91093,0 0,-3.22015 1.98367,-2.26699 3.24586,5.48714 3.22014,0 -4.76574,-7.49651 4.32788,-5.15223 -3.24596,0 -4.68852,5.82202 -0.0772,0 0,-11.36068 -2.91093,0 0,18.1874 z" />
      <path
         inkscape:export-ydpi="116.22256"
         inkscape:export-xdpi="116.22256"
         inkscape:connector-curvature="0"
         id="path6957"
         style="font-style:normal;font-variant:normal;font-weight:600;font-stretch:normal;font-size:medium;line-height:125%;font-family:'Source Sans Pro';-inkscape-font-specification:'Source Sans Pro Semi-Bold';letter-spacing:0px;word-spacing:0px;fill:#646464;fill-opacity:1;stroke:none;stroke-width:1px;stroke-linecap:butt;stroke-linejoin:miter;stroke-opacity:1"
         d="m 433.4033,332.17815 c 0,2.21546 1.5456,3.70961 3.76106,3.70961 1.49417,0 2.78227,-0.74707 3.91571,-1.70024 l 0.0772,0 0.23179,1.39111 2.42164,0 0,-7.49651 c 0,-3.52928 -1.5457,-5.46137 -4.71433,-5.46137 -2.00938,0 -3.78686,0.77284 -5.178,1.64872 l 1.08191,1.98361 c 1.10773,-0.66979 2.29279,-1.23653 3.55508,-1.23653 1.70026,0 2.26698,1.13349 2.29279,2.47306 -5.178,0.56675 -7.44498,1.98361 -7.44498,4.68854 z m 2.88522,-0.23185 c 0,-1.2623 1.13354,-2.16394 4.55976,-2.60188 l 0,2.83373 c -0.92746,0.87588 -1.72607,1.3911 -2.75646,1.3911 -1.05621,0 -1.8033,-0.48946 -1.8033,-1.62295 z" />
      <path
         inkscape:export-ydpi="116.22256"
         inkscape:export-xdpi="116.22256"
         inkscape:connector-curvature="0"
         id="path6959"
         style="font-style:normal;font-variant:normal;font-weight:600;font-stretch:normal;font-size:medium;line-height:125%;font-family:'Source Sans Pro';-inkscape-font-specification:'Source Sans Pro Semi-Bold';letter-spacing:0px;word-spacing:0px;fill:#646464;fill-opacity:1;stroke:none;stroke-width:1px;stroke-linecap:butt;stroke-linejoin:miter;stroke-opacity:1"
         d="m 449.05154,337.43343 c 0,-0.5925 0.30922,-1.15925 0.97898,-1.67447 0.48949,0.1288 1.0304,0.18032 1.72597,0.18032 l 1.72596,0 c 1.44266,0 2.24127,0.28338 2.24127,1.2623 0,1.08197 -1.39114,2.03514 -3.42622,2.03514 -2.00938,0 -3.24596,-0.66979 -3.24596,-1.80329 z m -2.47306,0.43794 c 0,2.21547 2.24127,3.29744 5.25534,3.29744 4.12179,0 6.74941,-1.95785 6.74941,-4.45669 0,-2.1897 -1.59722,-3.1171 -4.63699,-3.1171 l -2.24127,0 c -1.5457,0 -2.0609,-0.43795 -2.0609,-1.15926 0,-0.56675 0.23189,-0.87588 0.61824,-1.21078 0.56682,0.23186 1.18506,0.3349 1.72607,0.3349 2.67913,0 4.79155,-1.49415 4.79155,-4.30212 0,-0.87587 -0.30912,-1.64871 -0.72128,-2.13817 l 2.3185,0 0,-2.1897 -4.53395,0 c -0.5153,-0.18033 -1.15925,-0.30914 -1.85482,-0.30914 -2.65343,0 -4.99774,1.62296 -4.99774,4.53397 0,1.49414 0.79861,2.70492 1.64874,3.34895 l 0,0.10305 c -0.72128,0.51522 -1.39104,1.36534 -1.39104,2.34427 0,1.03044 0.48939,1.70023 1.13344,2.11241 l 0,0.10305 c -1.15925,0.72131 -1.8033,1.64871 -1.8033,2.70492 z m 5.4099,-8.1663 c -1.23658,0 -2.21546,-0.9274 -2.21546,-2.55035 0,-1.59719 0.97888,-2.49883 2.21546,-2.49883 1.23648,0 2.18964,0.9274 2.18964,2.49883 0,1.62295 -0.97887,2.55035 -2.18964,2.55035 z" />
      <path
         inkscape:export-ydpi="116.22256"
         inkscape:export-xdpi="116.22256"
         inkscape:connector-curvature="0"
         id="path6961"
         style="font-style:normal;font-variant:normal;font-weight:600;font-stretch:normal;font-size:medium;line-height:125%;font-family:'Source Sans Pro';-inkscape-font-specification:'Source Sans Pro Semi-Bold';letter-spacing:0px;word-spacing:0px;fill:#646464;fill-opacity:1;stroke:none;stroke-width:1px;stroke-linecap:butt;stroke-linejoin:miter;stroke-opacity:1"
         d="m 459.58548,329.26713 c 0,4.17332 2.73066,6.62063 6.23422,6.62063 1.59722,0 3.11711,-0.56674 4.32788,-1.36534 l -1.00469,-1.85481 c -0.92736,0.59251 -1.85482,0.92741 -2.93674,0.92741 -2.03519,0 -3.47785,-1.28806 -3.73545,-3.58081 l 8.03752,0 c 0.0772,-0.30914 0.12885,-0.82436 0.12885,-1.39111 0,-3.52927 -1.8033,-6.00235 -5.22953,-6.00235 -2.96255,0 -5.82206,2.5246 -5.82206,6.64638 z m 2.85951,-1.13349 c 0.2576,-2.11241 1.5457,-3.22014 3.03978,-3.22014 1.72607,0 2.5761,1.21078 2.5761,3.22014 l -5.61588,0 z" />
      <path
         inkscape:export-ydpi="116.22256"
         inkscape:export-xdpi="116.22256"
         inkscape:connector-curvature="0"
         id="path6963"
         style="font-style:normal;font-variant:normal;font-weight:600;font-stretch:normal;font-size:medium;line-height:125%;font-family:'Source Sans Pro';-inkscape-font-specification:'Source Sans Pro Semi-Bold';letter-spacing:0px;word-spacing:0px;fill:#646464;fill-opacity:1;stroke:none;stroke-width:1px;stroke-linecap:butt;stroke-linejoin:miter;stroke-opacity:1"
         d="m 381.32102,361.85466 2.98826,0 0,-16.84782 -2.98826,0 0,16.84782 z" />
      <path
         inkscape:export-ydpi="116.22256"
         inkscape:export-xdpi="116.22256"
         inkscape:connector-curvature="0"
         id="path6965"
         style="font-style:normal;font-variant:normal;font-weight:600;font-stretch:normal;font-size:medium;line-height:125%;font-family:'Source Sans Pro';-inkscape-font-specification:'Source Sans Pro Semi-Bold';letter-spacing:0px;word-spacing:0px;fill:#646464;fill-opacity:1;stroke:none;stroke-width:1px;stroke-linecap:butt;stroke-linejoin:miter;stroke-opacity:1"
         d="m 388.30873,361.85466 2.96255,0 0,-8.83609 c 1.0562,-1.03045 1.77748,-1.57144 2.88521,-1.57144 1.39114,0 1.98367,0.77284 1.98367,2.8595 l 0,7.54803 2.96245,0 0,-7.93445 c 0,-3.19439 -1.18496,-5.02343 -3.88991,-5.02343 -1.72597,0 -3.01407,0.90165 -4.1475,2.00937 l -0.10304,0 -0.20608,-1.70023 -2.44735,0 0,12.64874 z" />
      <path
         inkscape:export-ydpi="116.22256"
         inkscape:export-xdpi="116.22256"
         inkscape:connector-curvature="0"
         id="path6967"
         style="font-style:normal;font-variant:normal;font-weight:600;font-stretch:normal;font-size:medium;line-height:125%;font-family:'Source Sans Pro';-inkscape-font-specification:'Source Sans Pro Semi-Bold';letter-spacing:0px;word-spacing:0px;fill:#646464;fill-opacity:1;stroke:none;stroke-width:1px;stroke-linecap:butt;stroke-linejoin:miter;stroke-opacity:1"
         d="m 401.97624,355.54316 c 0,4.17332 2.03509,6.62063 5.20372,6.62063 1.36533,0 2.65343,-0.74707 3.58079,-1.67448 l 0.10314,0 0.20608,1.36535 2.44725,0 0,-18.1874 -2.96255,0 0,4.58549 0.10304,2.03514 c -0.97888,-0.85012 -1.88053,-1.39111 -3.32319,-1.39111 -2.75637,0 -5.35828,2.52459 -5.35828,6.64638 z m 3.06559,-0.0258 c 0,-2.6534 1.31381,-4.17331 2.93674,-4.17331 0.85013,0 1.70026,0.28337 2.5761,1.05621 l 0,5.89931 c -0.85013,0.97893 -1.67445,1.41687 -2.65333,1.41687 -1.82911,0 -2.85951,-1.46839 -2.85951,-4.19908 z" />
      <path
         inkscape:export-ydpi="116.22256"
         inkscape:export-xdpi="116.22256"
         inkscape:connector-curvature="0"
         id="path6969"
         style="font-style:normal;font-variant:normal;font-weight:600;font-stretch:normal;font-size:medium;line-height:125%;font-family:'Source Sans Pro';-inkscape-font-specification:'Source Sans Pro Semi-Bold';letter-spacing:0px;word-spacing:0px;fill:#646464;fill-opacity:1;stroke:none;stroke-width:1px;stroke-linecap:butt;stroke-linejoin:miter;stroke-opacity:1"
         d="m 416.46574,355.54316 c 0,4.17332 2.73066,6.62063 6.23412,6.62063 1.59721,0 3.1171,-0.56675 4.32787,-1.36534 l -1.00469,-1.85481 c -0.92736,0.59251 -1.85471,0.9274 -2.93673,0.9274 -2.03509,0 -3.47775,-1.28806 -3.73535,-3.5808 l 8.03751,0 c 0.0772,-0.30914 0.12875,-0.82436 0.12875,-1.39111 0,-3.52928 -1.8033,-6.00235 -5.22952,-6.00235 -2.96255,0 -5.82196,2.52459 -5.82196,6.64638 z m 2.85941,-1.13349 c 0.2576,-2.11242 1.5457,-3.22015 3.03988,-3.22015 1.72597,0 2.57609,1.21078 2.57609,3.22015 l -5.61597,0 z" />
      <path
         inkscape:export-ydpi="116.22256"
         inkscape:export-xdpi="116.22256"
         inkscape:connector-curvature="0"
         id="path6971"
         style="font-style:normal;font-variant:normal;font-weight:600;font-stretch:normal;font-size:medium;line-height:125%;font-family:'Source Sans Pro';-inkscape-font-specification:'Source Sans Pro Semi-Bold';letter-spacing:0px;word-spacing:0px;fill:#646464;fill-opacity:1;stroke:none;stroke-width:1px;stroke-linecap:butt;stroke-linejoin:miter;stroke-opacity:1"
         d="m 428.55006,361.85466 3.0914,0 1.33952,-2.49884 c 0.36074,-0.77284 0.74709,-1.51991 1.10773,-2.24122 l 0.10314,0 c 0.43787,0.72131 0.87584,1.49415 1.288,2.24122 l 1.5457,2.49884 3.19433,0 -4.01875,-6.25997 3.73544,-6.38877 -3.06558,0 -1.21077,2.39578 c -0.30912,0.69555 -0.66986,1.44263 -0.97898,2.13818 l -0.10304,0 c -0.38635,-0.69555 -0.79861,-1.44263 -1.15925,-2.13818 l -1.41685,-2.39578 -3.19434,0 3.76106,6.05387 -4.01876,6.59487 z" />
    </g>
  </g>
</svg>
