<svg width="40" height="38" viewBox="0 0 640 608" xmlns="http://www.w3.org/2000/svg">
  <!--Adapted from Font Awesome 5.13.0 - https://fontawesome.com/license/free (Icons: CC BY 4.0, Fonts: SIL OFL 1.1, Code: MIT License)-->
  <path
     fill="#e7e5e0"
     stroke="#cccccc"
     stroke-linejoin="bevel"
     stroke-miterlimit="4"
     stroke-width="5"
     d="m 96,267.204 c 35.3,0 64,-28.7 64,-64 0,-35.3 -28.7,-64 -64,-64 -35.3,0 -64,28.7 -64,64 0,35.3 28.7,64 64,64 z m 77.1,50.6 c -11.6,-11.5 -27.5,-18.6 -45.1,-18.6 H 64 c -35.3,0 -64,28.7 -64,64 v 32 c 0,17.7 14.3,32 32,32 h 65.9 c 6.3,-47.4 34.9,-87.3 75.2,-109.4 z" />
  <path
     fill="#efeeea"
     stroke="#cccccc"
     stroke-linejoin="bevel"
     stroke-miterlimit="4"
     stroke-width="5"
     d="m 320,299.204 c 61.9,0 112,-50.1 112,-112 0,-61.9 -50.1,-112 -112,-112 -61.9,0 -112,50.1 -112,112 0,61.9 50.1,112 112,112 z m 76.8,32 h -8.3 c -20.8,10 -43.9,16 -68.5,16 -24.6,0 -47.6,-6 -68.5,-16 h -8.3 c -63.6,0 -115.2,51.6 -115.2,115.2 v 28.8 c 0,26.5 21.5,48 48,48 h 288 c 26.5,0 48,-21.5 48,-48 v -28.8 c 0,-63.6 -51.6,-115.2 -115.2,-115.2 z" />
  <path
     fill="#f7f7f4"
     stroke="#cccccc"
     stroke-linejoin="bevel"
     stroke-miterlimit="4"
     stroke-width="5"
     d="m 576,299.204 h -64 c -17.6,0 -33.5,7.1 -45.1,18.6 40.3,22.1 68.9,62 75.1,109.4 h 66 c 17.7,0 32,-14.3 32,-32 v -32 c 0,-35.3 -28.7,-64 -64,-64 z m -32,-32 c 35.3,0 64,-28.7 64,-64 0,-35.3 -28.7,-64 -64,-64 -35.3,0 -64,28.7 -64,64 0,35.3 28.7,64 64,64 z" />
</svg>
